<svg version="1.2" xmlns="http://www.w3.org/2000/svg" viewBox="0 0 1200 600" width="1200" height="600">
	<title>TCER Counter</title>
	<style>
		.s0 { fill: #fffffe } 
		.s1 { fill: #061c29 } 
		.s2 { fill: #92da4d } 
		.s3 { fill: #cfdde0 } 
		.s4 { fill: #01a6f8 } 
		.s5 { fill: #a7b7c0 } 
		.s6 { fill: #20313c } 
		.s7 { fill: #6294b9 } 
	</style>
	<g id="Background">
		<path id="Path 0" class="s0" d="m0 300v300h1200v-600h-1200z"/>
		<path id="Path 1" class="s1" d="m237.5 87.4c-2.8 0.7-8.2 2.8-12 4.6-4.4 2.2-9.5 5.8-13.8 10-3.8 3.6-8.2 8.5-9.7 11-1.6 2.5-4.1 8.1-5.6 12.5-2.1 6.2-2.7 9.9-2.8 16.5 0 5 0.7 11.2 1.7 15 1 3.6 2.8 8.7 4.2 11.5 1.3 2.7 4.7 7.8 7.5 11.2 3.7 4.7 4.7 6.5 3.7 7.2-0.6 0.4-4.4 1.8-8.2 3.1-3.8 1.2-9.7 3.6-13 5.2-3.3 1.7-9.4 5.1-13.5 7.5-4.1 2.5-8.2 5.2-9 5.9-1.3 1.3-2.5 0.4-9.5-6.5-5.8-5.7-9-8.1-11.5-8.6-1.9-0.4-4.8-0.4-6.5 0-1.8 0.4-6.2 3.8-10.8 8.3-4.3 4.3-9.2 9.7-10.8 12.2-1.8 2.8-2.9 5.8-2.9 8 0 2.2 1.1 5.2 2.9 8 1.6 2.5 5 6.4 7.5 8.7 2.8 2.6 4.3 4.8 3.9 5.5-0.3 0.7-1.9 2.9-3.3 4.8-1.5 1.9-5.5 8.7-8.9 15-3.4 6.3-7.5 14.9-9 19-1.6 4.1-3.8 10.4-4.9 14-1.1 3.6-2.8 11.7-3.7 18-1.3 8.9-1.6 15.4-1.2 29 0.4 12.3 1.2 20.5 2.7 27.5 1.2 5.5 3.5 14.1 5.2 19 1.7 4.9 5.4 13.9 8.3 20 3 6.1 7.6 14.4 10.3 18.5 2.7 4.1 8.3 11.3 12.4 16 4.1 4.7 10.3 11 13.9 14.2 3.5 3.1 9.3 7.8 12.9 10.5 3.6 2.7 10.7 7.1 15.7 9.8 5.1 2.8 9.1 5.4 9 6-0.2 0.6-7.7 1.1-18.8 1.3-12.6 0.2-18.8 0.7-19.7 1.5-0.7 0.7-1.3 2.4-1.2 3.9 0 1.8 0.9 3.4 2.2 4.3 2 1.3 14.7 1.5 100.8 1.5 86.1 0 98.8-0.2 100.8-1.5q2.2-1.5 2.2-4.5 0-3-2-4c-1.1-0.6-9.8-1-19.5-1-15.7 0-17.5-0.2-17.2-1.6 0.1-1 4-3.7 8.8-6.3 4.8-2.5 12.6-7.6 17.5-11.2 4.9-3.7 12.8-10.7 17.5-15.5l8.7-8.9c97.4 0.5 129 0.4 133 0.1l7.2-0.6v-7.5c-8.1-1.1-38.1-1.5-71.8-1.5h-61.2c4.4-6.6 6.8-10.2 8.1-12.3l2.4-3.8c115.5 0.1 152.3-0.2 156.3-0.6l7.2-0.8v-8c-10.5-1.2-46-1.5-85.8-1.5-68.3 0-72.2-0.1-71.5-1.8 0.3-0.9 2-5.6 3.7-10.4l3.1-8.8c48 0 63.5-0.3 65.3-0.7 2.9-0.7 3.2-1.2 3.2-4.3 0-3.1-0.3-3.6-3.2-4.3-1.8-0.4-16.7-0.7-33.1-0.7-27.8 0-29.7-0.1-29.2-1.8 0.3-0.9 1-4.6 1.6-8.2 0.5-3.6 1.2-7.4 1.4-8.5 0.4-2 1.1-2 102.2-1.7 56 0.2 106.9 0.1 113-0.2l11.3-0.6v-8c-17.4-0.9-68.1-1-123.8-0.8l-101.2 0.3c-0.4-13.6-0.5-18.2-0.5-19 0-1.4 10.6-1.6 102-1.5 56.1 0 105.9-0.3 110.8-0.7l8.7-0.8v-7c-13.6-1.2-63.6-1.5-120-1.5l-102.5 0.1c-2.7-12.1-3.8-16.8-4.3-18.4l-0.7-2.7c126.3 0 166.5-0.3 170.8-0.7l7.7-0.8v-8c-12.8-1.2-53.9-1.5-99.5-1.5l-83 0.1c-2.2-5.9-3.9-9.5-5.2-11.9l-2.3-4.2c80.2 0 105.9-0.4 108.8-0.8l5.2-0.7v-9c-9.7-1.3-36.8-1.6-66.5-1.5l-54 0.1c-2.3-3.7-4.4-6.7-6-9l-3-4.3c8.2-7.2 11.7-10.9 13-12.8 1.6-2.3 2.5-4.8 2.5-7.3 0-2-0.5-4.9-1.1-6.5-0.6-1.5-5-6.7-9.7-11.5-4.8-4.9-9.9-9.5-11.5-10.3-1.5-0.8-4.1-1.4-5.7-1.4-1.6 0-4.2 0.6-5.8 1.4-1.5 0.7-5.7 4.6-9.5 8.5-6.4 6.8-6.8 7-9 5.6-1.2-0.8-4.6-3.1-7.5-5-2.8-1.9-8.7-5.2-13-7.4-4.2-2.1-11-4.9-15.1-6.2-4-1.3-7.5-3-7.7-3.7-0.2-0.6 1.7-3.8 4.3-7 2.5-3.1 5.6-8 6.9-10.7 1.3-2.8 3.1-7.9 4.1-11.5 1-3.7 1.7-9.9 1.7-14.5 0-6.1-0.7-10.1-2.9-17-1.9-5.8-4.4-10.9-7.1-14.5-2.2-3-6.3-7.6-9-10.1-2.7-2.5-8.2-6.2-12.2-8.2-3.9-2.1-9.8-4.4-13-5.2-3.2-0.9-9.6-1.5-14.7-1.4-5 0-11.3 0.6-14 1.3z"/>
		<path id="Path 2" class="s2" d="m708 354.6c-3 0.8-7.7 2.7-10.4 4.2-2.6 1.5-7 5.1-9.7 7.9-2.7 2.9-6 7.7-7.4 10.5-1.4 2.9-3 8.2-3.7 11.8-0.9 5-0.9 8 0 13.2 0.7 3.8 2.2 8.7 3.3 11 1.2 2.4 3.8 6.5 5.8 9.2 2 2.7 6.1 6.5 9.1 8.5 3 2 8.4 4.5 12 5.5 4.7 1.3 8.7 1.7 14.5 1.4 5.5-0.3 9.7-1.2 13.4-2.9 2.9-1.3 5.8-3.2 6.2-4.2 0.5-1 0.5-2.5-0.1-3.7-0.6-1.1-2-2-3.2-2-1.3 0.1-4.8 0.9-7.8 2-3 1.1-7.8 2-10.5 2-2.7 0-7.3-0.6-10-1.4-2.7-0.9-7.2-3-9.9-4.8-2.7-1.8-6.2-5.1-7.7-7.3-1.5-2.2-3.5-6-4.4-8.5-0.9-2.5-1.7-7.6-1.7-11.5-0.1-5.7 0.5-8.2 2.8-13.4 2-4.3 4.6-8 8.2-11.3 4.1-3.8 6.7-5.3 12.5-6.9 5.4-1.6 8.5-2 12.5-1.5 2.8 0.3 7.3 1.5 10 2.7 2.6 1.1 5.8 1.9 7.1 1.7 1.3-0.2 2.8-1.3 3.4-2.4 0.7-1.6 0.6-2.7-0.7-4.3-0.9-1.1-4.2-3-7.3-4.2-3.2-1.2-9.2-2.3-13.3-2.5-4.9-0.3-9.4 0.1-13 1.2zm69 0c-3 0.8-7.7 2.7-10.4 4.2-2.6 1.5-7 5.1-9.7 7.9-2.7 2.9-6 7.7-7.4 10.5-1.4 2.9-3 8.2-3.7 11.8-0.8 4.7-0.9 8.3-0.1 13 0.6 3.6 2.3 9.2 3.9 12.5 1.6 3.3 5.1 8.3 7.9 11.1 2.9 2.9 7.9 6.5 12 8.5 6.7 3.3 7.4 3.4 18.5 3.4 10.9 0 11.9-0.2 18-3.2 3.7-1.8 8.8-5.4 11.8-8.5 3-3 6.7-8.1 8.5-11.8 3-6.1 3.2-7.1 3.2-18 0-11-0.1-11.8-3.4-18.5-2-4.3-5.3-8.9-8.5-12-2.8-2.8-7.7-6.3-10.8-7.8-3.2-1.5-8.2-3.2-11-3.7-2.9-0.6-7.1-1-9.3-0.9-2.2 0-6.5 0.7-9.5 1.5zm63-0.4c-1.2 1-1.4 6.8-1.2 33 0.2 26.2 0.5 32.5 1.8 35.5 0.8 2.1 2.6 5.2 3.8 6.8 1.3 1.6 4.7 4.3 7.7 6 4.4 2.4 6.6 2.9 11.9 2.9 4.3 0 7.7-0.7 10-1.8 1.9-1 5-3.2 6.8-5 1.9-1.7 4.3-4.9 5.5-7.1 2.1-3.8 2.2-5.3 2.5-36.5 0.1-24.9-0.1-32.8-1-33.8-0.7-0.7-2.2-1.3-3.3-1.3-1.1 0-2.5 0.6-3.2 1.3-0.8 0.9-1.3 10.2-1.5 33-0.3 30.3-0.4 31.8-2.4 34.5-1.1 1.5-3.6 3.8-5.5 5.1-2.4 1.6-4.8 2.2-8.4 2.2-3.5 0-6-0.7-8.5-2.3-1.9-1.3-4.3-4-5.2-6-1.6-3.3-1.8-7.2-1.8-34.2 0-25.8-0.2-30.7-1.5-32-0.8-0.8-2.3-1.5-3.3-1.5-1 0-2.4 0.5-3.2 1.2zm55.6-0.1c-1.9 1-1.9 2.6-1.8 46.4 0.2 39 0.4 45.7 1.7 47 0.8 0.8 2 1.5 2.5 1.5 0.5 0 1.9-0.5 3-1 1.9-1 2-2 2-36.8 0-28.8 0.2-35.4 1.2-34.4 0.7 0.8 9.4 14.9 19.3 31.5 15.3 25.7 18.4 30.2 20.5 30.5 1.4 0.1 3.1-0.3 3.8-1 0.7-0.7 1.3-2.1 1.2-3.1 0-0.9-2.5-5.9-5.6-11-3.1-5-5.8-9.5-6-10-0.2-0.4 0.7-0.1 2.1 0.5 2.1 1.1 2.7 1 4.5-0.7 2-1.9 2.1-3.1 2.1-29.5 0-26.4-0.1-27.6-2.1-29.5-1.8-1.7-2.4-1.8-4.5-0.8l-2.5 1.3-0.5 57.5c-26.2-44.2-34.5-57.6-35.4-58.3-0.9-0.7-2.1-1.2-2.6-1.2-0.5 0-1.9 0.5-2.9 1.1zm54.4 0.1c-0.8 0.7-1.3 2.2-1.2 3.5 0.1 1.3 1.1 2.7 2.2 3.3 1.1 0.5 7.4 1 14 1h12c0 78 0.2 84.2 1.5 85.5 0.8 0.8 2 1.5 2.5 1.5 0.5 0 1.9-0.5 3-1 2-1 2-2 2-45.3-0.1-42.4 0-44.1 1.7-42.5 1.5 1.4 3.7 1.8 12.3 1.8 7.2 0 11-0.4 11.8-1.3 0.7-0.6 1.2-2.1 1.2-3.2 0-1.1-0.5-2.6-1.2-3.3-0.9-0.8-4.7-1.2-12.1-1.2-9.5 0-10.8 0.2-12 1.9-1.2 1.9-1.2 1.9-2.5 0-1.1-1.7-2.5-1.9-17.5-1.9-11.2 0-16.7 0.4-17.7 1.2zm75.5 0.4c-1.4 1.3-1.6 4-1.6 17.7 0.1 11.7 0.4 16.6 1.3 17.5 1.1 1 0.7 1.2-1.7 1.2-1.6-0.1-3.6 0.6-4.3 1.5-0.6 0.8-1 2.6-0.7 4q0.5 2.5 3 3l2.5 0.5c0 30.8 0.3 35.8 1.2 36.8 1 0.9 6.9 1.2 23.5 1.2 21.3 0 22.3-0.1 23.3-2 0.5-1.1 0.7-2.7 0.2-3.6-0.4-0.9-1.5-2.1-2.5-2.5-0.9-0.5-9.6-0.9-19.2-0.9h-17.5v-29c31.5 0 32-0.1 33.5-2.3 0.8-1.2 1.4-2.5 1.4-2.9-0.1-0.4-0.8-1.4-1.5-2.2-1.2-1.3-4.2-1.6-18.6-1.6-13.7 0-17-0.3-16-1.3 0.8-0.8 1.2-5.4 1.2-14.5v-13.2c36-0.5 37.4-0.6 38.6-2.5 1.2-1.7 1.1-2.3-0.1-4.3-1.5-2.2-1.8-2.2-22.9-2.2-18.1 0-21.7 0.2-23.1 1.6zm55 0c-1.5 1.4-1.6 6-1.6 45.7 0.1 34 0.4 44.6 1.3 46 0.9 1.3 2.3 1.7 4.3 1.5l3-0.3c1-76.5 1.1-78.4 3-80.5 1.1-1.2 3.2-2.8 4.7-3.6 1.6-0.8 4-1.4 5.5-1.4 1.6 0 4.3 0.9 6 2 1.8 1.1 4 3.5 4.9 5.2 1.1 2.2 1.5 4.6 1.1 7.3-0.4 2.6-1.7 5-3.7 7-2.1 2.1-4.4 3.2-7.3 3.5-3.3 0.4-4.3 1-5.2 3.2-0.9 2.3-0.5 3.2 3.2 8 2.3 2.9 10.6 13.2 18.5 22.8 9.9 12.1 15 17.6 16.6 17.7q2.2 0.3 3.7-2.2c0.8-1.4 1.2-3.1 0.8-3.8-0.4-0.6-7.5-9.5-15.7-19.6-10.9-13.3-14.7-18.6-13.6-19 0.8-0.3 3.2-2.1 5.3-4 2.1-2 4.5-5.4 5.4-7.6 0.9-2.4 1.4-6.2 1.1-9.6-0.2-3.9-1.1-6.7-3.1-9.7-1.5-2.3-4.4-5.3-6.5-6.7-2.5-1.7-5.7-2.8-9.7-3.1-4.3-0.5-7.1-0.2-10 1-3.5 1.4-4.2 1.4-5.5 0.1-0.8-0.8-2.3-1.5-3.2-1.5-0.9 0-2.4 0.7-3.3 1.6z"/>
		<path id="Path 3" class="s3" d="m691 199.7c5.2 0.2 14 0.2 19.5 0 5.5-0.1 1.2-0.3-9.5-0.3-10.7 0-15.2 0.2-10 0.3zm48.5 0c3.9 0.2 9.7 0.2 13 0 3.3-0.2 0.1-0.3-7-0.3-7.1 0-9.9 0.1-6 0.3zm154.5 0c7.4 0.2 19.8 0.2 27.5 0 7.7-0.1 1.6-0.3-13.5-0.3-15.1 0-21.4 0.2-14 0.3zm-8.6 50.6c-0.2 0.4 9.6 0.6 21.9 0.5 12.2-0.1 18.8-0.3 14.7-0.5-4.1-0.2-14-0.4-21.8-0.5-7.9-0.2-14.6 0-14.8 0.5zm-116.1 7.2c0 3.9 0.2 5.2 0.4 3 0.2-2.2 0.2-5.4 0-7-0.2-1.6-0.4 0.2-0.4 4zm-362 80.5c0 4.1 0.2 5.9 0.4 4 0.2-1.9 0.2-5.3 0-7.5-0.2-2.2-0.4-0.6-0.4 3.5zm528.5 45.6c-0.2 15.2 0 27.8 0.4 28 0.5 0.2 0.8-12.2 0.8-27.6 0-15.4-0.2-28-0.5-28-0.2 0-0.6 12.4-0.7 27.6zm-97.4 3.4c0 16.8 0.2 23.5 0.3 15 0.2-8.5 0.2-22.2 0-30.5-0.1-8.2-0.3-1.3-0.3 15.5zm41-0.5c0 16.5 0.2 23.5 0.3 15.5 0.2-8 0.2-21.5 0-30-0.1-8.5-0.3-2-0.3 14.5zm106.8 15.3l0.3 42.7c0.4-74.8 0.8-83.4 1.8-82.8 0.9 0.5 0.9 0.3 0.2-1-0.6-0.9-1.4-1.7-1.8-1.7-0.4 0-0.6 19.2-0.5 42.8zm-92.7-4.8c0 20.6 0.1 28.9 0.2 18.5 0.2-10.4 0.2-27.3 0-37.5-0.1-10.2-0.2-1.6-0.2 19zm129.9-23.5c0 7.7 0.2 10.6 0.3 6.5 0.2-4.1 0.2-10.4 0-14-0.2-3.6-0.3-0.2-0.3 7.5zm10 1.5c0 7.4 0.1 10.4 0.3 6.5 0.2-3.9 0.2-9.9 0-13.5-0.2-3.6-0.3-0.4-0.3 7zm55.1 34c0 20.1 0.1 28.2 0.2 18 0.2-10.2 0.2-26.6 0-36.5-0.1-9.9-0.2-1.6-0.2 18.5zm-185.3-0.2l0.3 32.7c0.4-56.8 0.8-63.4 1.8-62.8 0.9 0.5 0.9 0.3 0.2-1-0.6-0.9-1.4-1.7-1.8-1.7-0.4 0-0.6 14.7-0.5 32.8zm-72.9-13.3c0 3.9 0.2 5.2 0.4 3 0.2-2.2 0.2-5.4 0-7-0.2-1.6-0.4 0.1-0.4 4zm201.1-5.2c-0.2 0.4 3.5 0.6 8.4 0.6 4.8-0.1 7.6-0.3 6.2-0.5-1.4-0.2-5.1-0.5-8.3-0.6-3.3-0.2-6.1 0-6.3 0.5zm-8 22.7c0 7.4 0.1 10.4 0.3 6.5 0.2-3.9 0.2-9.9 0-13.5-0.2-3.6-0.3-0.4-0.3 7zm10 1.5c0 8.3 0.2 11.4 0.3 7 0.2-4.4 0.2-11.1 0-15-0.1-3.9-0.3-0.2-0.3 8zm5.1 24.2c1.7 0.2 4.8 0.2 7 0 2.2-0.2 0.8-0.4-3-0.4-3.8 0-5.7 0.2-4 0.4zm-725 60c1.7 0.2 4.8 0.2 7 0 2.2-0.2 0.9-0.4-3-0.4-3.8 0-5.6 0.2-4 0.4z"/>
		<path id="Path 4" class="s4" d="m678.5 201.8c-1 1-1.8 3.1-1.7 4.5 0.1 1.5 1.2 3.4 2.5 4.2 1.7 1.2 5.6 1.5 18.4 1.5h16.3c0 97.9 0.3 111.1 1.3 113 0.7 1.4 2.5 2.9 4 3.5 2.3 0.8 3.1 0.6 5-1.3l2.2-2.3 0.5-117.9c4.9 4.9 5.5 5 18.3 5 10.1 0 13.7-0.3 15.4-1.5 1.5-0.9 2.3-2.5 2.3-4.3 0.1-1.5-0.7-3.5-1.7-4.4-1.5-1.5-3.9-1.8-16.1-1.8-10.2 0-14.5 0.4-15.2 1.2-0.6 0.7-1.7 2.2-2.5 3.3-1.3 1.8-1.4 1.8-1.5 0.2 0-0.9-0.7-2.4-1.5-3.2-1.2-1.2-5.2-1.5-22.9-1.5-19.3 0-21.5 0.2-23.1 1.8zm135-0.2c-3.3 0.8-8.9 2.9-12.5 4.6-4.4 2.2-8.9 5.6-14.1 10.8-5.1 5.1-8.5 9.6-10.7 14-1.7 3.6-3.8 9.2-4.7 12.5-0.8 3.3-1.5 9.6-1.5 14 0 4.4 0.7 10.7 1.6 14 0.9 3.3 3.2 9.1 5.2 13 2.1 3.8 6.3 9.6 9.7 13 3.6 3.6 8.8 7.5 13 9.7 3.9 2 9.7 4.4 13 5.4 3.7 1 9.5 1.7 15 1.7 5.7 0 11.2-0.6 15-1.7 3.3-1 7.7-2.7 9.8-3.7 2-1 4.2-2.9 4.8-4.2 0.7-1.5 0.7-3 0-5-0.6-1.5-2.1-3-3.4-3.3-1.3-0.3-4.8 0.5-8.7 2.2-5.1 2.2-8.5 2.8-16 3.2-8 0.3-10.6 0-16.5-1.9-3.9-1.3-9.5-4.2-12.5-6.4-3.2-2.4-7.3-6.8-9.8-10.5-2.4-3.6-5.2-9.4-6.3-13-1.1-3.7-1.9-9.4-1.9-13.3 0-3.7 0.8-9.3 1.8-12.5 1-3.1 3.2-8 4.9-10.7 1.7-2.8 5.3-7 8-9.5 2.6-2.4 7.5-5.7 10.8-7.2 3.3-1.5 8.9-3.3 12.5-3.9q6.5-1.1 13-0.1c3.6 0.5 9.2 2.2 12.5 3.7 4.1 1.8 6.9 2.5 8.7 2.1 1.6-0.3 3.4-1.7 4-3.1 1-1.9 1-3.1 0.2-4.8-0.6-1.2-3.6-3.4-6.7-5-3.2-1.5-8.5-3.4-12-4.2-3.4-0.8-9.3-1.4-13.2-1.4-3.9 0-9.7 0.7-13 1.5zm64 0.2c-1.7 1.7-1.8 3.8-1.7 24.3 0.1 16.6 0.5 22.7 1.4 23.7 1.1 1 0.6 1.2-2.2 1.2-2.1 0-4.2 0.6-5.2 1.7-1 1-1.8 3-1.8 4.5 0 1.8 0.8 3.3 2.2 4.3 1.3 0.8 3.1 1.5 4 1.5 1.7 0 1.8 1.9 2 24.7l0.3 24.7c4.3 2.2 12.3 2.6 32.3 2.6h27.3c3.8-3.9 4.9-5.6 4.9-6.3 0-0.6-0.7-2.2-1.5-3.5-1.5-2.2-1.7-2.2-26.5-2.2h-25v-40c40.7 0 42.1-0.1 44-2 1.1-1.1 2-3 2-4.3 0.1-1.2-0.7-3-1.7-3.9-1.6-1.6-4.4-1.8-24.6-1.8h-22.7c2.7-4 3-8 3-21.8v-17.2c47.7 0 49.1-0.1 51-2 1.1-1.1 2-2.9 2-4 0-1.1-0.9-2.9-2-4-1.9-1.9-3.3-2-30.9-2-26.6 0-28.9 0.1-30.6 1.8zm71-0.4c-1.9 1.4-2 3-2.3 61.3-0.2 47.3 0 60.3 1.1 62.3 0.9 1.9 2.1 2.6 5 2.8 2.9 0.1 4-0.3 5.2-2 1.3-2 1.5-9.5 1.5-52.8 0-48.7 0.1-50.6 2-53.8 1.1-1.8 3.9-4.1 6.3-5.2 2.3-1.1 5.7-2 7.5-2 1.7 0 4.7 0.6 6.5 1.3 1.7 0.8 4.7 3 6.5 5 1.7 2.1 3.5 5.2 3.8 6.9 0.3 1.8 0.3 5 0 7-0.3 2.2-2 5.3-3.8 7.5-1.8 2-4.8 4.2-6.5 5-1.8 0.7-4.9 1.3-6.8 1.3-2.5 0-3.8 0.6-4.5 2-0.5 1.1-1 3-1 4.2 0 1.5 8.4 12.6 23.6 31.3 13 15.9 24.1 29.6 24.7 30.3 0.7 0.7 2.6 1.4 4.2 1.4q3 0 4.8-2.3c1.1-1.5 1.5-3.2 1.1-4.4-0.3-1.1-5.2-7.6-10.7-14.5-5.5-6.9-14.7-18.1-20.3-25l-10.3-12.5c7.3-4.9 10.6-8 12.1-10.1 1.5-2.2 3.4-5.9 4.3-8.4 0.8-2.5 1.5-6.6 1.5-9.3 0-2.6-0.8-6.8-1.8-9.5-0.9-2.6-3.3-6.7-5.2-9-2.2-2.8-5.7-5.5-9.5-7.3-4.7-2.3-7.4-2.9-12.3-2.9-3.8 0-8.1 0.8-11.2 2l-5 2c-3.1-3.1-5-4-6.3-4-1.2 0-3.1 0.6-4.2 1.4z"/>
		<path id="Path 5" class="s5" d="m875.4 225.5c0 12.1 0.2 16.8 0.3 10.5 0.2-6.3 0.2-16.2 0-22-0.1-5.8-0.3-0.6-0.3 11.5zm0 61c0 13.2 0.2 18.4 0.3 11.5 0.2-6.9 0.2-17.7 0-24-0.1-6.3-0.3-0.7-0.3 12.5zm24.6 16.2c6.9 0.2 17.7 0.2 24 0 6.3-0.1 0.7-0.3-12.5-0.3-13.2 0-18.4 0.2-11.5 0.3zm-738.5 196c3.9 0.2 9.7 0.2 13 0 3.3-0.2 0.2-0.3-7-0.3-7.1 0-9.8 0.1-6 0.3zm57.5 0c16.8 0.2 44.5 0.2 61.5 0 17.1-0.1 3.3-0.2-30.5-0.2-33.8 0-47.8 0.1-31 0.2zm110.5 0c3.3 0.2 8.3 0.2 11 0 2.8-0.2 0.1-0.3-6-0.3-6 0-8.3 0.1-5 0.3z"/>
		<path id="Path 6" class="s6" d="m97.4 338.5c0 6.6 0.1 9.1 0.3 5.5 0.2-3.6 0.2-9 0-12-0.2-3-0.3-0.1-0.3 6.5z"/>
		<path id="Path 7" class="s7" d="m127.5 202.3l-8 8.2c12.8-12.4 16.5-16.1 16.5-16.3 0-0.1-0.1-0.2-0.3-0.2-0.1 0-3.8 3.7-8.2 8.2zm33.5 284.5c4.7 0.2 12.6 0.2 17.5 0 4.9-0.1 1.1-0.3-8.5-0.3-9.6 0-13.7 0.2-9 0.3zm164 0c4.7 0.2 12.6 0.2 17.5 0 4.9-0.1 1.1-0.3-8.5-0.3-9.6 0-13.7 0.2-9 0.3z"/>
		<path id="Path 8" fill-rule="evenodd" class="s0" d="m255.5 98.7c3.3 0.2 8.3 1.1 11 2 2.8 0.8 7.3 2.8 10 4.3 2.8 1.5 6.9 5 9.3 7.6 2.4 2.7 5.9 8.1 7.7 11.9 1.9 3.8 3.8 9.2 4.2 11.9 0.8 4.7 0.7 4.8-1.6 4.5-1.9-0.3-2.6-1.3-3.5-4.9-0.7-2.5-2.5-6.5-4-9-1.6-2.5-4.5-6.2-6.5-8.4-2-2.2-7.1-5.5-11.6-7.7-5.3-2.6-10-4.1-14-4.5-3.3-0.3-8.5-0.1-11.5 0.4-3 0.6-8.2 2.3-11.5 3.9-3.2 1.5-8 4.6-10.5 6.9-2.5 2.2-6 7-7.9 10.5-1.9 3.5-3.7 7.7-4 9.3-0.4 1.8-1.5 3.2-5.6 4.8l0.8-5.4c0.4-2.9 2.3-8.5 4.1-12.3 1.7-3.8 5-9 7.2-11.4 2.1-2.4 5.6-5.5 7.6-6.7 2.1-1.3 6-3.3 8.8-4.4 2.7-1.1 7.4-2.4 10.2-2.9 2.9-0.5 8-0.7 11.3-0.4zm-2 21.7c5 0.2 8.4 1 12 2.8 2.7 1.4 6.9 4.6 9.2 7.2 2.4 2.5 4.3 5.3 4.3 6.1 0 1.3-3.7 1.5-27 1.5-20.9 0-27-0.3-27-1.3-0.1-0.6 1.9-3.4 4.2-6.1 2.4-2.7 6.1-5.8 8.3-6.9 2.2-1.1 5.1-2.4 6.5-2.8 1.4-0.5 5.7-0.7 9.5-0.5zm-2.3 30.6c11.9 0 21.7 0.4 22.8 1 1.8 0.9 2 2 2 10.5 0 7.1-0.3 9.4-1.3 9.2-0.7-0.2-1.3-2.6-1.5-6.5-0.2-5.1-0.6-6.4-2.2-7.2-1.5-0.7-2.4-0.6-3.5 0.5-1 1-1.5 3.4-1.5 6.7 0 2.9-0.5 5.9-1.2 6.5-0.8 0.9-4.8 1.3-12.7 1.3-8.1 0-12-0.4-12.9-1.2-0.7-0.8-1.2-3.7-1.2-7.1 0-4.7-0.3-5.9-2-6.7-1.5-0.7-2.4-0.6-3.5 0.5-1 1-1.5 3.6-1.5 8 0 5.1-0.3 6.5-1.5 6.5-1.2 0-1.5-1.8-1.7-9.8-0.2-7.4 0.1-10.1 1.2-11 1-0.9 7.5-1.2 22.2-1.2zm-0.7 42.1c1.1 0 7.9 0.6 15 1.4 7.1 0.8 15.7 2.2 19 3.1 3.3 0.8 10.5 3.1 16 5.1 5.5 2 12.2 5 15 6.6 2.7 1.7 7.5 4.6 10.5 6.6 3 1.9 8.6 6 12.5 9.2 3.9 3.1 10.4 9.2 14.5 13.5 4.1 4.4 9.6 10.6 12.1 13.9 2.6 3.3 7 10.1 9.9 15 2.9 4.9 6.5 12.1 8 16 1.6 3.9 4.3 12.4 6.1 19 2.8 10.2 3.3 13.5 3.2 22.5-0.1 5.9-0.7 12.3-1.5 14.5-1.1 3.5-1.7 4-4.3 4-2.6 0-3-0.4-3.2-3-0.2-1.6-0.8-7.1-1.4-12-0.6-4.9-1.6-11-2.2-13.5-0.6-2.5-1.7-5.6-2.4-7-0.7-1.4-1.3-3.1-1.3-3.8 0-0.6-1.8-5.8-4.1-11.5-2.3-5.6-6.5-14.3-9.4-19.2-2.9-4.9-7.1-11.3-9.2-14-2.2-2.8-8.5-9.5-13.9-14.9-5.4-5.5-12.4-11.6-15.4-13.6-3-2-8.9-5.5-13-7.8-4.1-2.3-12.2-5.9-18-8.1-6-2.2-14.8-4.6-20.5-5.5-5.5-0.9-14.5-1.6-20-1.6-5.5 0-14.5 0.7-20 1.6-5.5 0.9-14.5 3.2-20 5.1-5.5 1.9-13.8 5.5-18.5 8-4.7 2.5-11.2 6.4-14.5 8.8-3.3 2.3-10.2 8.4-15.4 13.6-5.1 5.2-11.4 12.1-14 15.4-2.5 3.3-5.8 8.2-7.4 11-1.5 2.7-4.7 9.1-7.1 14-2.4 4.9-5.1 11.2-6.1 14-0.9 2.7-2.1 5.9-2.5 7-0.5 1.1-1.6 4.5-2.4 7.5-0.8 3-2 9.3-2.5 14-0.6 4.7-1.1 10.4-1.1 12.7 0 3.8-0.3 4.4-2.8 5.3-1.5 0.6-2.8 0.9-2.8 0.8-0.1-0.2-0.6-1.2-1.2-2.3-0.5-1.1-1.5-5.6-2.2-10-0.7-4.6-0.9-10.8-0.5-14.5 0.3-3.6 1.7-10.6 3-15.5 1.3-4.9 3.3-11.9 4.5-15.5 1.3-3.6 3.4-8.8 4.8-11.5 1.3-2.8 4.3-8.1 6.5-12 2.2-3.9 7.3-11.1 11.3-16 4-4.9 8.8-10.6 10.6-12.5 1.8-2 6.5-6.3 10.3-9.6 3.8-3.3 9.7-7.9 13-10.1 3.3-2.2 9.4-5.8 13.5-8.1 4.1-2.2 12.9-5.9 19.5-8.1 7.1-2.3 16.5-4.6 23-5.5 6.1-0.9 12.3-1.7 14-1.9 1.7-0.2 3.9-0.5 5-0.6zm-108.2 12.9c0.7 0 2.6 1.4 7.4 6.5l-8.7 7.5-6-6 3.1-4c1.7-2.2 3.6-4 4.2-4zm219 0c0.7 0 3.3 2.1 5.8 4.8 2.5 2.6 4.9 5.4 5.3 6.2 0.6 1-0.4 2.7-3 5.3-2.2 2-4.2 3.7-4.7 3.7-0.4 0-1.7-1.7-2.9-3.8-1.1-2-3.4-5-7.9-9.7l3.1-3.3c1.7-1.7 3.7-3.2 4.3-3.2zm427.7 157.3c6.2 0.2 9.7 0.9 13 2.5 2.5 1.2 6.4 4.1 8.8 6.4 2.4 2.4 5.5 6.8 7 9.8 2.2 4.5 2.7 6.9 2.7 13.5 0 6.5-0.5 9-2.6 13.5-1.4 3-4.3 7.5-6.5 9.8-2.1 2.4-6.4 5.6-9.4 7-4.6 2.3-6.8 2.7-14 2.7-6.4 0-9.6-0.5-13-2.1-2.5-1.1-6.7-4-9.4-6.5-2.6-2.4-6-6.7-7.5-9.4-2.3-4.4-2.6-6.2-2.6-14.5 0-8 0.4-10.3 2.5-14.5 1.3-2.8 4.6-7.1 7.2-9.8 2.9-2.8 6.9-5.5 10.1-6.7 4-1.5 7.1-1.9 13.7-1.7z"/>
		<path id="Path 9" class="s1" d="m231.5 210.9c-5.5 1-11.8 2.4-14 3.1-2.2 0.7-7.8 2.8-12.5 4.7-4.7 1.9-11.2 5.1-14.5 7.1-3.3 1.9-7.8 4.7-10 6.1-2.2 1.4-8.2 6.7-13.4 11.6-5.1 4.9-11.5 11.7-14.1 15-2.6 3.3-6.8 9.4-9.3 13.5-2.4 4.1-5.8 10.4-7.5 14-1.6 3.6-4.1 10.1-5.6 14.5-1.5 4.4-3.4 11.8-4.2 16.5-1.2 6.5-1.5 12.8-1.1 27 0.3 12.9 0.9 20.3 2.1 24.5 0.9 3.3 2.7 9.4 4 13.5 1.4 4.1 5.5 13.1 9.2 20 3.7 6.9 9 15.2 11.8 18.5 2.7 3.3 8 9.1 11.6 12.9 3.6 3.8 11.2 10 17 13.8 5.8 3.9 13.1 8.3 16.3 9.9 3.1 1.6 9.4 4.3 13.9 6 4.8 1.7 12.8 3.6 18.8 4.4 5.8 0.8 15.9 1.5 22.5 1.5 6.6 0 16.5-0.7 22-1.4 6.2-0.9 13.9-2.9 20.5-5.4 5.8-2.1 12.8-5.2 15.5-6.7 2.7-1.6 8.8-5.4 13.5-8.5 5.4-3.6 12.4-9.7 18.9-16.6 5.8-6 12.2-13.6 14.3-16.9 2.2-3.3 6.1-10.3 8.7-15.5 2.7-5.2 6.2-14 7.9-19.5 1.7-5.5 3.5-13.3 4.1-17.3 0.6-3.9 1.1-13.8 1.1-22 0-8.1-0.5-17.6-1.1-21.2-0.5-3.6-2.4-11-4.1-16.5-1.7-5.5-5-13.8-7.4-18.5-2.5-4.7-5.6-10.5-7.1-13-1.4-2.5-4.7-7.2-7.3-10.5-2.6-3.3-9.2-10.3-14.6-15.6-5.5-5.2-11.7-10.7-13.9-12.2-2.2-1.5-5.4-3.5-7.2-4.4-1.7-1-5.3-3-8-4.4-2.6-1.5-8.9-4.2-13.8-6.2-5.1-2-14-4.5-20.5-5.7-7.2-1.2-15.4-2-22-1.9-5.8 0-15 0.9-20.5 1.8z"/>
		<path id="Path 10" class="s3" d="m208.1 141c-1.9 0.7-2.4 1.6-2.3 3.7 0.1 2 0.7 2.8 2.1 2.8 1.5 0 2-0.8 2.3-3.8 0.2-2 0.3-3.7 0.3-3.6 0 0-1.1 0.4-2.4 0.9zm85.9 3c0 2.2 0.6 3.1 2 3.5 1.7 0.4 2 0 2-3 0-2.8-0.4-3.5-2-3.5-1.6 0-2 0.7-2 3zm-61.5 14.6c-1.2 1.1-1.6 3.3-1.6 8 0.1 5.3-0.2 6.5-1.7 6.8-1.2 0.3-1 0.4 0.5 0.5 1.3 0 2.6 0.9 2.9 1.9 0.6 1.5 0.9 1.4 2.1-0.8 0.8-1.4 1.2-1.7 0.9-0.7-0.3 0.9-0.2 1.7 0.4 1.7 0.6 0 1.3-0.6 1.7-1.3q0.8-1.3 3.3-0.6c1.4 0.4 1.8 0.8 1 0.9-1 0.1-0.7 0.5 0.8 1.1 1.6 0.6 2 1.4 1.5 2.7-0.5 1.2-0.4 1.5 0.5 1 0.6-0.5 1-1.4 0.8-2-0.3-0.7 0-1.9 0.7-2.5 0.6-0.7 3.4-1.3 6.4-1.3 5.1 0 5.3 0.1 5.3 2.8 0 2.6 0.3 2.7 5.3 3 4 0.2 5.7-0.2 7.5-1.8 1.2-1.1 2.2-2.4 2.2-3 0-0.6 0.7-1 1.5-1 0.8 0 1.5-0.4 1.5-1 0-0.6-0.7-1.2-1.5-1.5-1.1-0.4-1.5-2.1-1.5-6.5 0-5-0.3-6.2-2-7-1.5-0.7-2.4-0.6-3.5 0.5-1 1-1.5 3.4-1.5 6.8 0 2.8-0.5 5.8-1.2 6.5-0.8 0.8-4.8 1.2-12.7 1.2-8.1 0-12-0.4-12.9-1.2-0.7-0.8-1.2-3.6-1.2-7 0.1-4.8-0.2-5.9-1.9-6.8-1.5-0.7-2.4-0.6-3.6 0.6zm-98.5 54.9c-1.9 1.9-3.3 3.8-3.2 4.2 0.1 0.5 2.4 3.1 5.2 5.8l5 5c4.2-3.9 6.9-6.5 8.7-8.2 1.9-1.9 3.1-4 2.8-4.8-0.3-0.8-1.2-1.8-2-2.2-1.1-0.6-2.8 0.4-5.5 3.2l-3.9 4c-5.9-6.3-6-6.6-4.5-8.5 0.9-1.1 1.4-2 1.2-2-0.3 0-2 1.6-3.8 3.5zm218.8-0.4l-2.3 3.2c11.7 10.9 12.8 11.6 14.7 10.7 1.3-0.5 2.7-0.6 3.2-0.2 0.5 0.4 0.6 0.1 0.3-0.5-0.4-0.7 0-1.5 0.8-1.8 0.8-0.3 1.5 0.1 1.5 0.8 0 0.6 0.3 0.9 0.7 0.5 0.4-0.4 0.1-1.4-0.7-2.3-1.3-1.3-1.2-1.4 1.6-1.2 3 0.2 3.1 0.1 2-2.7-0.6-1.6-1.5-3.2-2.1-3.5-0.6-0.4-0.7 0-0.1 0.9 0.6 1.1-0.3 2.6-3 5.3-2.2 2-4.2 3.7-4.7 3.7-0.4 0-1.8-1.9-3.1-4.2-1.4-2.4-3.6-5.4-5-6.8-1.9-1.8-2.3-2.8-1.5-3.7 0.6-0.7 0.8-1.3 0.5-1.3-0.3 0-1.5 1.4-2.8 3.1zm-226.3 94.2c-0.2 0.6-1 3.7-1.9 6.7-0.8 3-2 9.3-2.5 14-0.6 4.7-1.1 10.4-1.1 12.7 0 3.7-0.4 4.5-2.5 5.3-1.4 0.6-2.6 1-2.7 1-0.2 0.1-0.9-1.2-1.5-2.7-0.7-1.5-1.7-5.7-2.3-9.3-0.6-3.6-1.3-6.7-1.7-7-0.3-0.3-0.3 6.3 0 14.5 0.4 8.3 1.1 16.4 1.6 18 0.5 1.6 2 7.6 3.3 13.2 2.1 9.5 2.4 10.1 4.1 8.8 1.5-1.4 1.8-1.3 2.3 0.8 0.3 1.2 2.4 5.8 4.6 10.2 2.2 4.4 5.4 10.3 7.2 13 1.7 2.8 5.9 8.8 9.4 13.5 3.5 4.7 8.3 10.5 10.6 13 2.4 2.5 7.4 7.2 11.2 10.6 3.8 3.3 9.8 8.1 13.4 10.7 3.6 2.5 6.8 4.6 7.3 4.7 0.4 0 3.3 1.5 6.5 3.4 3.1 1.8 10.4 4.9 16.2 6.9 5.8 1.9 14.1 4.2 18.5 5.2 4.4 0.9 13.8 1.9 21 2.2 9.5 0.4 16 0.1 24-1.1 6.1-1 16.6-3.6 23.5-5.8 6.9-2.3 16.1-6.1 20.5-8.6 4.4-2.4 10.5-6.3 13.5-8.5 3-2.2 7.1-5.5 9-7.1 1.9-1.7 6.3-6 9.8-9.6 3.5-3.6 8.9-9.9 12.1-14 3.2-4.1 7.9-10.9 10.6-15 2.6-4.1 6.2-10.6 8-14.5 1.8-3.9 3.7-8.6 4.3-10.5 0.6-1.9 1.9-6.4 2.9-9.9 1-3.5 2.4-6.6 3.1-6.8 0.9-0.2 0.9 0.5-0.2 3.5-0.7 2-1 4.6-0.6 5.7 0.5 1.4 1.2-0.5 2.4-6.5 0.9-4.7 2.2-13.2 2.7-19 0.6-5.8 0.7-13 0.3-16l-0.8-5.5c-1 9.3-1.8 12.9-2.4 14-0.6 1.3-2 2-3.9 2-2.4 0-2.8-0.4-3-3-0.2-1.6-0.8-7.1-1.4-12-0.6-4.9-1.5-11-2.1-13.5-0.6-2.5-1.5-4.9-2-5.5-0.6-0.6-0.7-0.1-0.4 1.5 0.3 1.4 1.1 5.4 1.7 9 0.6 3.6 1.1 12.4 1.1 19.5 0 8.6-0.7 16.9-2 24.5-1.2 6.3-3.3 14.9-4.7 19-1.5 4.1-5.4 12.7-8.7 19-3.4 6.3-8.6 14.6-11.7 18.5-3.1 3.9-8.5 10.1-12.1 13.8-3.8 4-11.3 10-18 14.4-6.3 4.2-14.6 9.1-18.5 10.9-3.9 1.8-10.6 4.4-15 5.7-4.4 1.4-11.6 3.1-16 3.8-4.4 0.7-14.1 1.3-21.5 1.3-7.4 0-16.9-0.6-21-1.2-4.1-0.7-10.7-2.2-14.5-3.3-3.8-1.1-10.6-3.6-15-5.6-4.4-2-12.9-6.9-19-10.9-7.5-4.9-14-10.4-20.5-17.1-5.3-5.4-11.4-12.3-13.6-15.3-2.2-3-6.1-9.3-8.6-14-2.6-4.7-6-11.9-7.6-16-1.6-4.1-3.9-11.6-5-16.5-1.2-4.9-2.7-13.5-3.3-19-0.9-7.6-0.9-12.9 0-22 0.7-6.6 1.8-14.6 2.5-17.8 0.7-3.1 1.1-5.7 0.9-5.7-0.2 0-0.5 0.6-0.8 1.3z"/>
		<path id="Path 11" fill-rule="evenodd" class="s5" d="m293.7 143.3c0.2 2.7 0.8 3.8 2.3 4.2 1.1 0.3 2 1.3 2 2.2 0 1-0.7 4-1.5 6.8-0.9 2.7-2.8 7-7 14l-0.3-4c-0.2-2.4 0.5-5.9 1.8-8.8 1.2-2.9 2.1-7.2 2.2-11.5 0.1-3.7 0.3-5 0.5-3zm-82.7 4.3c0.3 3.8 1.4 8.8 2.3 11 1 2.3 1.6 5.7 1.1 12l-3.6-7.5c-2.1-4.1-3.8-9.3-4-11.5-0.3-3.3 0-4 1.5-3.8 1.3 0.2 1.7-0.5 1.9-3.5 0.1-2.1 0.4-0.7 0.8 3.3zm24.5 25.5c0.3 0 0.2 0.7 0 1.5-0.3 0.8 0 1.5 0.5 1.5 0.6 0 1.3-0.6 1.8-1.3q0.7-1.3 3.2-0.6c1.4 0.4 1.8 0.8 1 0.9-1 0.1-0.7 0.5 0.8 1.1 1.3 0.5 2 1.5 1.7 2.4-0.4 1.1-1 1.2-2.2 0.6-1-0.4-2.8-0.7-4-0.5-1.3 0.2-2.1 0.8-1.8 1.4 0.3 0.6-1.3 1-4 1-4.5 0-4.5 0-4.5-3.5 0-2.8 0.4-3.5 2-3.5 1.1 0 2.4 0.8 2.9 1.7 0.8 1.6 0.9 1.6 1.5-0.5 0.4-1.2 0.9-2.2 1.1-2.2zm17 1c5.4 0 5.5 0 5.5 6h-6.2c-5.4 0-6.3-0.3-6.1-1.8 0-0.9 0.4-2.3 0.7-3 0.4-0.7 2.8-1.2 6.1-1.2zm22.1 0c0.9 0 1.4 1.1 1.4 3.5 0 3.2-0.2 3.5-3 3.5-1.6 0-3.2-0.4-3.5-1-0.3-0.6 0.2-1.2 1-1.5 0.8-0.3 1.7-1.4 2.1-2.5 0.3-1.1 1.2-2 2-2zm82.1 48.2c5.4 5 6.6 5.7 8.6 4.8 1.2-0.5 2.6-0.6 3.1-0.2 0.5 0.4 0.6 0.1 0.3-0.6-0.4-0.6 0-1.4 0.8-1.7 0.8-0.3 1.5 0.1 1.5 0.7 0 0.7 0.3 1 0.7 0.6 0.4-0.4 0.1-1.4-0.7-2.3-1.3-1.3-1.2-1.4 1.6-1.2 3 0.2 3.1 0.1 2.2-2.3-0.9-2.3-0.9-2.4 0.6-1 1 0.8 1.7 2.2 1.7 3-0.1 0.8-2.2 3.7-9.6 11.1l-8.6-8.3c-4.7-4.6-5.7-5.7-2.2-2.6zm-226.9-4.9l11.1 11.2 2.8-2.4c2.2-2 2.1-1.6-0.8 1.7-1.9 2.3-4.4 4.2-5.5 4.2-1 0-4-2.1-11.4-9.5zm-6.1 120.2c0.2 2.2 0.2 5.6 0 7.5-0.2 1.9-0.4 0.1-0.4-4 0-4.1 0.2-5.7 0.4-3.5zm268.8 20.6c0.2 0.3-0.1 3.2-0.7 6.5-0.5 3.2-1.2 6.1-1.5 6.4-0.3 0.3-0.3-1.3 0.1-3.5 0.4-2.2 0.9-5.4 1.2-7 0.3-1.7 0.7-2.7 0.9-2.4zm-3.8 6.9c0.5 0 0.3 1.7-0.3 3.7-0.6 2.1-0.8 4.7-0.3 5.8 0.4 1.1 0.8 2.6 0.8 3.2 0.1 0.7-0.4 1.1-0.9 0.8-0.6-0.3-1.2 0.2-1.5 1-0.3 0.8-0.1 1.3 0.5 1 0.5-0.3 1 0.2 1 1 0 0.8-0.5 1.5-1 1.5-0.6 0-0.8 0.3-0.6 0.7 0.3 0.5-0.4 3.7-1.5 7.3-1 3.6-3.9 10.5-6.3 15.5-2.4 4.9-8.5 14.4-13.4 21-4.9 6.6-11.6 14.5-14.8 17.6-3.3 3-8.6 7.8-11.9 10.5-3.3 2.8-8 6.4-10.5 8-2.5 1.7-9.2 5.4-15 8.2-5.8 2.8-14.6 6.5-19.5 8.1-5 1.6-14.2 3.7-20.5 4.7-8.6 1.2-15.2 1.5-26 1.1-8.8-0.4-18.4-1.4-24.3-2.6-5.3-1.2-14.1-3.9-19.5-6-5.3-2.2-13.3-5.9-17.7-8.3-4.4-2.4-9.6-5.4-11.5-6.7-1.9-1.4-6.4-4.9-10-8-3.6-3-8.7-7.5-11.4-10-2.6-2.5-7.9-8.7-11.6-13.6-3.7-5-8.5-11.9-10.7-15.5-2.2-3.6-5.7-10.6-7.8-15.5-2.1-5-3.8-9.9-3.9-11-0.1-1.1-0.5-2.5-0.9-3-0.4-0.6 0.2-1.8 1.3-2.8 1.9-1.6 2-1.6 2.6 0.5 0.3 1.3 2.4 5.9 4.6 10.3 2.2 4.4 5.4 10.2 7.1 13 1.8 2.7 6 8.8 9.5 13.5 3.5 4.7 8.3 10.5 10.6 13 2.3 2.5 7.4 7.2 11.2 10.6 3.8 3.3 9.8 8.1 13.4 10.7 3.6 2.5 6.8 4.6 7.2 4.7 0.4 0 3.4 1.5 6.5 3.4 3.2 1.8 10.5 4.9 16.3 6.9 5.8 1.9 14.1 4.2 18.5 5.2 4.4 0.9 13.8 1.9 21 2.2 9.5 0.4 15.9 0.1 24-1.1 6-1 16.6-3.6 23.5-5.8 6.9-2.3 16.1-6.1 20.5-8.6 4.4-2.4 10.5-6.3 13.5-8.5 3-2.3 7-5.5 8.9-7.1 1.9-1.7 6.4-6 9.9-9.6 3.5-3.6 8.9-9.9 12.1-14 3.2-4.1 7.9-10.9 10.6-15 2.6-4.1 6.2-10.7 8-14.5 1.7-3.9 3.6-8.4 4.2-10 0.6-1.7 1.6-5 2.1-7.5 0.6-2.5 1.5-5.7 2.1-7.3 0.6-1.5 1.4-2.7 1.8-2.7zm-159.2 103.2c1.6 0 5.2 0.3 8 0.7 4.1 0.7 4.3 0.8 1.5 0.9-1.9 0-5.5-0.3-8-0.8-3.3-0.5-3.7-0.8-1.5-0.8zm44.5 0.1c3.1-0.1 3 0-1 0.7-2.5 0.5-6.1 0.8-8 0.8-3.2-0.1-3.1-0.2 1-0.8 2.5-0.4 6.1-0.7 8-0.7zm-22 2c4.7 0 6.5 0.2 4 0.4-2.5 0.2-6.3 0.2-8.5 0-2.2-0.2-0.2-0.4 4.5-0.4z"/>
		<path id="Path 12" class="s6" d="m143.8 226.8l-6.8 6.7-7.5-7 7.5 8c11.2-11.2 14.3-14.5 14-14.5-0.3 0-3.5 3-7.2 6.7zm-34.5 111.3c0 4.7 0.2 6.5 0.4 4 0.2-2.5 0.2-6.3 0-8.5-0.2-2.2-0.4-0.2-0.4 4.5zm15.1 2.5c0 5.5 0.1 7.5 0.3 4.5 0.2-3 0.2-7.5 0-10-0.2-2.5-0.3 0-0.3 5.5zm269.9-1.5c0 4.7 0.2 6.5 0.4 4 0.2-2.5 0.2-6.3 0-8.5-0.2-2.2-0.4-0.2-0.4 4.5zm-15 1c0 4.7 0.2 6.5 0.4 4 0.2-2.5 0.2-6.3 0-8.5-0.2-2.2-0.4-0.2-0.4 4.5zm-40.8 95.2l-8 8.3c12.8-12.4 16.5-16.1 16.5-16.3 0-0.1-0.1-0.2-0.3-0.2-0.1 0-3.8 3.7-8.2 8.2zm-90.5 34.5c1.9 0.2 5.3 0.2 7.5 0 2.2-0.2 0.6-0.4-3.5-0.4-4.1 0-5.9 0.2-4 0.4z"/>
		<path id="Path 13" class="s7" d="m238 138.7c7.4 0.2 19.8 0.2 27.5 0 7.7-0.1 1.6-0.3-13.5-0.3-15.1 0-21.4 0.2-14 0.3zm-9.4 12.1c-0.2 0.4 5.7 0.6 13.2 0.4 7.6-0.1 16.8-0.3 20.7-0.5 3.9-0.2-2.1-0.4-13.2-0.5-11.1-0.1-20.4 0.1-20.7 0.6zm47.8 14.2c0 5.2 0.1 7.3 0.3 4.5 0.2-2.7 0.2-7 0-9.5-0.2-2.5-0.3-0.2-0.3 5zm-28.9 321.7c2.8 0.2 7.5 0.2 10.5 0 3-0.2 0.8-0.3-5-0.3-5.8 0-8.2 0.1-5.5 0.3z"/>
		<path id="Path 14" class="s0" d="m232 223.9c-4.7 1-11.2 2.6-14.5 3.6-3.3 0.9-9.5 3.5-13.8 5.6l-7.7 3.9c2.2 4.3 6.3 10 10.4 15.5 4.5 5.8 7.7 10.9 7.6 12.2 0 1.3-0.9 3.2-2 4.3-1.1 1.1-2.8 2-3.7 2-1 0-2.7-1-3.9-2.2-1.1-1.3-5.3-7-9.4-12.8-4-5.8-7.6-10.9-8.1-11.5-0.4-0.6-3.5 1.3-7.8 4.7-3.9 3.2-8.6 7.8-10.3 10.2-1.8 2.4-5.4 7-7.9 10.2l-4.7 5.9c17.3 11.8 22.7 16 23.3 16.8q1 1.6 0 4.4c-0.8 2.1-1.8 2.9-4 3.1-2.3 0.3-5.4-1.2-13.7-6.7-6-3.9-11.1-6.9-11.5-6.7-0.5 0.2-1.8 2.8-3 5.7-1.2 3-3.1 8.5-4.2 12.4-1.2 3.9-2.8 11.1-3.6 16-0.8 4.9-1.5 9.6-1.5 10.2 0 1 3.5 1.3 14 1.3 11.1 0 14.3 0.3 15.5 1.5 0.8 0.8 1.5 2.9 1.5 4.5q0 3-2.2 4.5c-1.6 1.1-4.9 1.5-11 1.5-4.9 0-8.8 0.2-8.8 0.5 0 0.3 1.1 3.3 2.5 6.7 1.4 3.5 2.5 6.5 2.5 6.8 0 0.3 1.4 3 3.3 6 1.8 3 4.7 7.9 6.5 10.7 1.8 2.9 3.4 5.3 3.7 5.3 0.3 0 2-0.9 3.8-2 1.7-1.1 4.1-2 5.2-2 1.1 0 2.8 0.7 3.7 1.7 1 1 1.8 2.8 1.8 4 0 1.5-1.4 3.4-3.7 5.3l-3.8 3c6.2 6.4 10.6 10.8 13.9 13.9 3.2 3.1 7.6 6.8 9.7 8.3l3.9 2.8c3.3-5.7 5-7.2 6.8-7.6 1.7-0.3 3.5 0 5 1 1.2 0.9 2.2 2.6 2.2 3.8 0.1 1.3-0.8 3.5-2 5-1.1 1.6-2 3.1-2 3.5 0 0.5 3.1 2 6.8 3.5 3.7 1.5 9.4 3.4 12.7 4.2 3.3 0.8 8.4 1.7 11.3 2l5.2 0.6c0-7.7 0.6-9.6 2-11 1.1-1.1 2.9-2 4-2 1.1 0 2.9 0.9 4 2 1.4 1.4 2 3.3 2 6.5v4.5c8.9-0.9 15.3-2.5 20-4 4.7-1.6 10.1-3.4 12-4.2 1.9-0.7 3.6-1.3 3.7-1.3 0.2 0-0.7-1.9-2-4.1-1.9-3.6-2-4.5-0.9-6.8 0.6-1.4 2-2.9 3-3.2 0.9-0.4 2.7-0.4 4 0 1.2 0.3 3.1 2.2 4.2 4.1l2 3.5c6.6-4.7 12.1-9.6 16.5-13.9 4.4-4.2 8.6-8.5 9.3-9.4 1-1.5 0.7-2.1-2.3-4.7-1.9-1.6-3.5-3.8-3.5-4.8 0-0.9 0.7-2.7 1.5-4 1-1.4 2.5-2.2 4.3-2.2 1.5 0 3.8 0.9 5.2 2 1.4 1.1 2.9 2 3.5 1.9 0.6 0 2.9-3.2 5.2-7.2 2.3-4 5.8-10.8 7.8-15.2 1.9-4.4 4.2-9.2 5-10.8l1.5-2.7c-15.8 0-19.1-0.4-20.8-1.5q-2.2-1.5-2.2-4.5c0-1.6 0.7-3.7 1.6-4.5 1.2-1.2 4.5-1.5 15.5-1.5 13.7 0 13.9 0 13.9-2.3 0-1.2-0.7-6-1.5-10.7-0.8-4.7-2.9-12.8-4.6-18-1.7-5.2-3.7-10.7-4.5-12.3-1.2-2.4-1.7-2.6-3.6-1.5-1.3 0.6-4.8 2.7-7.8 4.7-3 1.9-6.7 4.6-8.3 5.8-1.5 1.3-4.1 2.3-5.9 2.3-1.8 0.1-3.9-0.5-4.6-1.2-0.7-0.7-1.1-2.6-1-4.2 0.2-2.2 1.5-3.8 5.3-6.5 2.8-1.9 8-5.6 11.6-8.1l6.6-4.5c-8.7-11.6-13.5-17.2-16.3-20-2.9-2.7-7.1-6.6-9.4-8.5l-4.3-3.5c-2.8 3.9-6.6 9.3-10.3 14.5-3.6 5.2-7.6 10.3-8.8 11.3-1.1 1-2.7 1.8-3.3 1.7-0.7 0-2.2-0.9-3.3-2-1.1-1.1-2-3-2-4.3 0-1.3 3.7-7.2 9-14.2 5-6.6 8.9-12.4 8.7-13-0.2-0.6-3.9-2.8-8.3-5-4.7-2.4-12.3-5.1-18.9-6.7-6.1-1.5-13.6-2.9-16.7-3.2l-5.8-0.6c0 31.7-0.2 33.2-2 35-1.1 1.1-2.9 2-4 2-1.1 0-2.9-0.9-4-2-1.8-1.8-2-3.3-2-18.5v-16.5c-4.3 0.1-9.3 0.9-14 1.9z"/>
		<path id="Path 15" class="s3" d="m137.8 347.5c0.1 2.2 0.9 8.1 1.7 13 0.8 4.9 3 13.7 5 19.5 1.9 5.8 3.7 10.6 4 10.8 0.3 0.1 4.3-2.2 8.9-5.1l8.3-5.2c-4.8-7.4-7.9-12.3-10-15.5-2-3.3-3.7-6.3-3.7-6.8 0-0.4-1.1-3.5-2.5-7-1.4-3.4-2.5-6.4-2.5-6.7 0-0.3 3.9-0.6 8.7-0.8 4.9-0.2 2.7-0.3-4.6-0.3h-13.5zm205.2-3.7c2.5 0.2 6.7 0.2 9.5 0 2.7-0.2 0.7-0.4-4.5-0.4-5.2 0-7.5 0.2-5 0.4zm14.2 1.5c-0.6 0.7-2 3.7-3.2 6.8-1.2 3-3.3 7.7-4.7 10.5-1.4 2.7-4.2 7.7-6.2 11-2 3.3-4.1 6.1-4.6 6.3-0.6 0.2 2.9 2.7 7.7 5.7 4.9 3 8.9 5.5 9 5.5 0.2 0 1.1-1.7 2-3.8 0.9-2 2.6-6.7 3.7-10.2 1.2-3.6 2.8-10.6 3.6-15.5 0.8-5 1.5-11 1.5-13.3v-4.2c-6 0-8.2 0.5-8.8 1.2zm-185.2 44.2c-0.8 0.8-5.2 3.6-9.8 6.3l-8.2 4.8c4 6.2 6.8 10 8.8 12.5 2 2.4 6.2 7.2 9.3 10.5 3.2 3.3 7.8 7.4 10.3 9.2l4.6 3.3c7-12.1 10.2-17.1 11.7-19 1.5-2 2.3-3.2 1.8-2.8-0.6 0.4-2.8-0.6-5-2.3-2.2-1.6-8.2-7.1-13.3-12.2-5.1-5.1-9.1-9.8-8.9-10.5 0.3-0.7 0.4-1.2 0.3-1.2-0.1 0-0.8 0.6-1.6 1.4zm159 0.5c0 0.6-4.2 5.1-9.3 10-5 5-11 10.3-13.2 12-2.2 1.7-4.4 2.7-5 2.3-0.5-0.4 0.3 0.8 1.8 2.8 1.5 1.9 4.7 6.9 7.2 11.2 2.5 4.3 4.8 7.8 5.2 7.8 0.5 0 5.5-4.4 11.3-9.9 5.8-5.4 12.9-13.3 15.7-17.5l5.3-7.6c-7.2-4.3-11.5-7-14.1-8.8-2.7-1.8-4.9-2.8-4.9-2.3zm-37.5 29.8c0.5 0.7 0.8 1.4 0.5 1.5-0.3 0.2-2.1 0.9-4 1.6-1.9 0.7-7.3 2.6-12 4.1-4.7 1.6-11.1 3.1-14.3 3.5l-5.7 0.6v26c7.4-1 13.5-2 18.5-3 5.3-1.1 13.6-3.8 20.2-6.7 6.2-2.6 11.3-5.2 11.3-5.6 0-0.4-2.9-5.1-6.5-10.5-3.5-5.4-7-10.4-7.7-11.3-0.7-0.9-0.9-1-0.3-0.2zm-86.1 3.3c-0.9 1.9-3.9 6.7-6.5 10.7-2.7 4-4.9 7.6-4.9 8 0 0.4 5 2.9 11.2 5.4 6.2 2.6 12.9 5.2 14.8 5.8 1.9 0.6 8 1.7 13.5 2.5 5.5 0.8 10.1 1.4 10.2 1.3 0-0.2 0.3-6.7 0.5-14.7 0.1-7.9 0.2-13.7 0-12.7-0.2 1.4-1 1.6-5.5 1.1-2.8-0.3-7.9-1.2-11.2-2-3.3-0.8-8.9-2.7-12.5-4.2-3.6-1.5-6.8-3.1-7.2-3.7-0.3-0.6-1.4 0.5-2.4 2.5z"/>
		<path id="Path 16" class="s5" d="m246.4 238c0 9.1 0.2 12.7 0.3 8 0.2-4.7 0.2-12.1 0-16.5-0.1-4.4-0.3-0.6-0.3 8.5zm11 0c0 9.1 0.2 12.7 0.3 8 0.2-4.7 0.2-12.1 0-16.5-0.1-4.4-0.3-0.6-0.3 8.5zm0 202c0 9.1 0.2 12.7 0.3 8 0.2-4.7 0.2-12.1 0-16.5-0.1-4.4-0.3-0.6-0.3 8.5zm-11 3.5c0 7.1 0.1 9.9 0.3 6 0.2-3.9 0.2-9.7 0-13-0.2-3.3-0.3-0.1-0.3 7z"/>
		<path id="Path 17" class="s6" d="m256.4 245.5c0 5.5 0.1 7.5 0.3 4.5 0.2-3 0.2-7.5 0-10-0.2-2.5-0.3 0-0.3 5.5zm-110.9 97.2c3.3 0.2 8.9 0.2 12.5 0 3.6-0.2 0.9-0.3-6-0.3-6.9 0-9.8 0.1-6.5 0.3zm200.5 0c3.6 0.2 9.7 0.2 13.5 0 3.9-0.2 0.9-0.3-6.5-0.3-7.4 0-10.6 0.1-7 0.3z"/>
		<path id="Path 18" class="s7" d="m145 332.7c3.6 0.2 9.7 0.2 13.5 0 3.8-0.2 0.9-0.3-6.5-0.3-7.4 0-10.6 0.1-7 0.3zm199.5 0c3.3 0.2 8.9 0.2 12.5 0 3.6-0.2 0.9-0.3-6-0.3-6.9 0-9.8 0.1-6.5 0.3z"/>
		<path id="Path 19" class="s1" d="m306.9 280.8c-1.9 1.5-7.6 6.7-12.9 11.7-5.2 4.9-14.4 13.8-20.5 19.8-10.7 10.4-11.1 10.7-14 9.7-1.6-0.6-5-1-7.5-1-2.5 0-6.1 0.6-8 1.4-1.9 0.8-4.5 2.5-5.7 3.8-1.2 1.2-2.9 4-3.7 6-0.9 2.1-1.6 5.8-1.6 8.3 0 2.5 0.9 6.2 1.9 8.2 1.1 2.1 3.2 5 4.8 6.5 1.5 1.4 4.6 3.2 6.8 3.8 2.2 0.7 6 1 8.5 0.6 2.5-0.3 6.1-1.6 7.9-2.8 2-1.3 4.7-4.6 6.4-7.8 2.5-4.8 2.8-6.2 2.3-11l-0.6-5.5c26.7-25.6 37.3-35.7 40.7-39 5.2-5 6.3-6.6 6.3-9.3 0-2.2-0.7-3.7-2.2-4.7-1.3-0.8-3-1.5-4-1.5-0.9 0-3.1 1.2-4.9 2.7z"/>
		<path id="Path 20" class="s3" d="m292.8 312.6l-20.3 19.5c0 14.1-0.2 14.7-4 19.9-2.5 3.4-5.5 6-8 7.2-2.2 0.9-5.6 1.8-7.5 1.8-1.9 0-5.1-0.5-7-1-1.9-0.6-5-2.5-6.7-4.3l-3.3-3.2c0.8 7 1.8 10.3 2.8 11.9 0.9 1.6 3 3.8 4.5 5 2.1 1.5 4.7 2.2 9.5 2.5 4.7 0.2 7.6-0.1 9.7-1.2 1.6-0.8 4.4-3 6-4.7 1.6-1.8 3.7-5.4 4.5-8 1.3-4 3.5-6.7 15-17.6 7.4-7 14.8-14 16.4-15.4 1.7-1.4 6.3-5.6 10.4-9.5 4-3.9 8-8.4 8.9-10 0.9-1.9 1.2-4 0.8-5.5-0.6-2.3-0.6-2.4 0.9-1 0.9 0.8 1.8 1.3 2 1 0.1-0.3-0.6-1.3-1.6-2.3-1.2-1.1-1.8-1.3-1.8-0.5 0.1 0.9-0.6 0.7-1.7-0.5-1-0.9-3.5-2.1-5.5-2.6l-3.8-0.9z"/>
		<path id="Path 21" class="s0" d="m248.1 334.5c-1.3 0.9-2.3 2.3-2.2 3.1 0.1 1 0.9 1.2 2.9 0.9 1.5-0.3 3.5-1.3 4.4-2.3 1-0.9 1.5-2 1.3-2.5-0.3-0.4-1.3-0.7-2.2-0.7-1 0-2.9 0.7-4.2 1.5z"/>
		<path id="Path 22" class="s3" d="m254.5 333.8c0.2 0.4-0.3 1.5-1.3 2.4-0.9 1-2.9 2-4.5 2.3-1.8 0.3-2.7 0.1-2.7-0.8 0-0.6 0.4-1.8 1-2.5 0.5-0.6 0.2-0.5-0.7 0.3-1.2 1-1.7 2.7-1.6 4.8 0.1 1.8 1 4 2 5 1.1 1.1 3.3 1.8 5.8 1.8 3 0.1 4.4-0.5 5.8-2.3 1-1.2 1.8-2.9 1.7-3.6 0-0.6-0.6-2.4-1.4-4-0.7-1.5-2.1-3-3-3.5-0.9-0.4-1.4-0.4-1.1 0z"/>
	</g>
</svg>